<?xml version="1.0" encoding="utf-8" standalone="no"?>
<!DOCTYPE svg PUBLIC "-//W3C//DTD SVG 1.1//EN"
  "http://www.w3.org/Graphics/SVG/1.1/DTD/svg11.dtd">
<svg xmlns:xlink="http://www.w3.org/1999/xlink" width="57pt" height="15pt" viewBox="0 0 57 15" xmlns="http://www.w3.org/2000/svg" version="1.1">
 <metadata>
  <rdf:RDF xmlns:dc="http://purl.org/dc/elements/1.1/" xmlns:cc="http://creativecommons.org/ns#" xmlns:rdf="http://www.w3.org/1999/02/22-rdf-syntax-ns#">
   <cc:Work>
    <dc:type rdf:resource="http://purl.org/dc/dcmitype/StillImage"/>
    <dc:date>2026-09-30T20:35:10.542564</dc:date>
    <dc:format>image/svg+xml</dc:format>
    <dc:creator>
     <cc:Agent>
      <dc:title>Matplotlib v3.11.2, https://matplotlib.org/</dc:title>
     </cc:Agent>
    </dc:creator>
   </cc:Work>
  </rdf:RDF>
 </metadata>
 <defs>
  <style type="text/css">*{stroke-linejoin: round; stroke-linecap: butt}</style>
 </defs>
 <g id="figure_1">
  <g id="patch_1">
   <path d="M 0 15 
L 57 15 
L 57 0 
L 0 0 
z
" style="fill: #ffffff"/>
  </g>
  <g id="text_1">
   <!-- $f=\frac{1}{m\tau}=\frac{d}{nm}$ -->
   <g style="fill: #163247" transform="translate(0 11) scale(0.13 -0.13)">
    <defs>
     <path id="STIXGeneral-Italic-49" d="M 262 2739 
L 858 2739 
Q 1107 3546 1318 3846 
Q 1664 4339 2163 4339 
Q 2400 4339 2557 4227 
Q 2714 4115 2714 3942 
Q 2714 3834 2634 3750 
Q 2554 3667 2445 3667 
Q 2355 3667 2281 3737 
Q 2208 3808 2208 3917 
Q 2208 3981 2240 4038 
Q 2272 4096 2272 4115 
Q 2272 4198 2131 4198 
Q 1862 4198 1676 3849 
Q 1491 3501 1350 2739 
L 2035 2739 
L 1997 2534 
L 1306 2534 
L 845 486 
Q 435 -1325 -435 -1325 
Q -653 -1325 -797 -1213 
Q -941 -1101 -941 -934 
Q -941 -826 -870 -746 
Q -800 -666 -698 -666 
Q -589 -666 -521 -733 
Q -454 -800 -454 -902 
Q -454 -947 -483 -1001 
Q -512 -1056 -512 -1088 
Q -512 -1190 -384 -1190 
Q 13 -1190 237 -154 
L 800 2534 
L 218 2534 
L 262 2739 
z
" transform="scale(0.015625)"/>
     <path id="STIXGeneral-Regular-20" d="M 4077 2048 
L 307 2048 
L 307 2470 
L 4077 2470 
L 4077 2048 
z
M 4077 768 
L 307 768 
L 307 1190 
L 4077 1190 
L 4077 768 
z
" transform="scale(0.015625)"/>
     <path id="STIXGeneral-Regular-14" d="M 2522 0 
L 755 0 
L 755 96 
Q 1107 115 1235 227 
Q 1363 339 1363 608 
L 1363 3482 
Q 1363 3795 1171 3795 
Q 1082 3795 883 3718 
L 710 3654 
L 710 3744 
L 1856 4326 
L 1914 4307 
L 1914 486 
Q 1914 275 2042 185 
Q 2170 96 2522 96 
L 2522 0 
z
" transform="scale(0.015625)"/>
     <path id="STIXGeneral-Italic-50" d="M 4506 672 
L 4474 627 
Q 3981 -58 3552 -58 
Q 3296 -58 3296 237 
Q 3296 333 3379 659 
L 3750 2112 
Q 3795 2291 3795 2355 
Q 3795 2413 3756 2451 
Q 3718 2490 3667 2490 
Q 3366 2490 2829 1741 
Q 2592 1408 2457 1072 
Q 2323 736 2138 0 
L 1658 0 
L 1830 595 
Q 2266 2099 2266 2330 
Q 2266 2490 2125 2490 
Q 1965 2490 1702 2237 
Q 1440 1984 1171 1574 
Q 1011 1325 899 1043 
Q 787 762 557 0 
L 77 0 
L 352 922 
Q 704 2093 704 2381 
Q 704 2522 442 2522 
L 282 2522 
L 282 2624 
L 1318 2822 
L 1338 2810 
L 966 1472 
Q 1798 2822 2374 2822 
Q 2560 2822 2659 2720 
Q 2758 2618 2758 2438 
Q 2758 2195 2502 1466 
Q 2842 2003 3069 2275 
Q 3296 2547 3526 2694 
Q 3731 2822 3930 2822 
Q 4102 2822 4201 2710 
Q 4301 2598 4301 2419 
Q 4301 2336 4282 2240 
L 3846 634 
Q 3782 390 3782 346 
Q 3782 243 3859 243 
Q 4000 243 4275 582 
L 4410 749 
L 4506 672 
z
" transform="scale(0.015625)"/>
     <path id="STIXGeneral-Italic-213" d="M 2726 2739 
L 2592 2266 
L 1741 2266 
Q 1293 1248 1293 742 
Q 1293 416 1523 416 
Q 1638 416 1779 547 
Q 1920 678 2003 858 
L 2106 858 
Q 1990 467 1731 198 
Q 1472 -70 1178 -70 
Q 768 -70 768 384 
Q 768 890 1395 2266 
L 1005 2266 
Q 493 2266 179 1702 
L 77 1702 
Q 237 2093 569 2416 
Q 902 2739 1331 2739 
L 2726 2739 
z
" transform="scale(0.015625)"/>
     <path id="STIXGeneral-Italic-47" d="M 3334 4371 
L 3373 4333 
L 3123 3360 
L 2739 1958 
Q 2323 429 2323 384 
Q 2323 256 2438 256 
Q 2522 256 2614 336 
Q 2707 416 2963 710 
L 3040 646 
Q 2547 -83 2099 -83 
Q 1978 -83 1907 -6 
Q 1837 70 1837 205 
Q 1837 397 1920 774 
Q 1645 307 1379 118 
Q 1114 -70 781 -70 
Q 461 -70 278 125 
Q 96 320 96 678 
Q 96 1440 713 2131 
Q 1331 2822 1965 2822 
Q 2163 2822 2256 2732 
Q 2349 2643 2381 2451 
L 2387 2451 
L 2675 3494 
Q 2765 3808 2765 3949 
Q 2765 4051 2694 4076 
Q 2624 4102 2355 4115 
L 2355 4224 
Q 2848 4269 3334 4371 
z
M 2278 2310 
Q 2278 2477 2185 2576 
Q 2093 2675 1978 2675 
Q 1677 2675 1395 2381 
Q 1075 2042 864 1571 
Q 653 1101 653 704 
Q 653 486 752 361 
Q 851 237 1024 237 
Q 1312 237 1606 550 
Q 1901 864 2089 1350 
Q 2278 1837 2278 2310 
z
" transform="scale(0.015625)"/>
     <path id="STIXGeneral-Italic-51" d="M 2944 749 
L 3034 666 
Q 2707 218 2534 80 
Q 2362 -58 2138 -58 
Q 2010 -58 1923 28 
Q 1837 115 1837 288 
Q 1837 390 1939 768 
L 2221 1805 
Q 2310 2150 2310 2310 
Q 2310 2496 2157 2496 
Q 1971 2496 1750 2275 
Q 1530 2054 1210 1587 
Q 998 1274 899 1024 
Q 800 774 570 0 
L 90 0 
L 704 2240 
Q 717 2304 717 2349 
Q 717 2445 630 2480 
Q 544 2515 301 2522 
L 301 2624 
Q 550 2675 857 2729 
Q 1165 2784 1338 2822 
L 1363 2810 
L 934 1414 
Q 1408 2170 1753 2496 
Q 2099 2822 2413 2822 
Q 2611 2822 2720 2716 
Q 2829 2611 2829 2432 
Q 2829 2272 2765 2048 
L 2406 749 
Q 2317 429 2317 358 
Q 2317 243 2419 243 
Q 2541 243 2810 582 
Q 2854 634 2944 749 
z
" transform="scale(0.015625)"/>
    </defs>
    <use xlink:href="#STIXGeneral-Italic-49" transform="translate(0 0.909375)"/>
    <use xlink:href="#STIXGeneral-Regular-20" transform="translate(47.799973 0.909375)"/>
    <use xlink:href="#STIXGeneral-Regular-14" transform="translate(164.549911 35.284375) scale(0.7)"/>
    <use xlink:href="#STIXGeneral-Italic-50" transform="translate(142.549911 -25.340625) scale(0.7)"/>
    <use xlink:href="#STIXGeneral-Italic-213" transform="translate(193.089867 -25.340625) scale(0.7)"/>
    <use xlink:href="#STIXGeneral-Regular-20" transform="translate(248.039835 0.909375)"/>
    <use xlink:href="#STIXGeneral-Italic-47" transform="translate(367.789774 36.192188) scale(0.7)"/>
    <use xlink:href="#STIXGeneral-Italic-51" transform="translate(342.789774 -25.340625) scale(0.7)"/>
    <use xlink:href="#STIXGeneral-Italic-50" transform="translate(377.789742 -25.340625) scale(0.7)"/>
    <path d="M 142.549911 22.784375 
L 142.549911 29.034375 
L 221.789835 29.034375 
L 221.789835 22.784375 
L 142.549911 22.784375 
z
"/>
    <path d="M 342.789774 22.784375 
L 342.789774 29.034375 
L 428.329697 29.034375 
L 428.329697 22.784375 
L 342.789774 22.784375 
z
"/>
   </g>
  </g>
 </g>
</svg>
