<?xml version="1.0" encoding="utf-8" standalone="no"?>
<!DOCTYPE svg PUBLIC "-//W3C//DTD SVG 1.1//EN"
  "http://www.w3.org/Graphics/SVG/1.1/DTD/svg11.dtd">
<svg xmlns:xlink="http://www.w3.org/1999/xlink" width="171pt" height="18pt" viewBox="0 0 171 18" xmlns="http://www.w3.org/2000/svg" version="1.1">
 <metadata>
  <rdf:RDF xmlns:dc="http://purl.org/dc/elements/1.1/" xmlns:cc="http://creativecommons.org/ns#" xmlns:rdf="http://www.w3.org/1999/02/22-rdf-syntax-ns#">
   <cc:Work>
    <dc:type rdf:resource="http://purl.org/dc/dcmitype/StillImage"/>
    <dc:date>2026-09-30T20:35:07.775058</dc:date>
    <dc:format>image/svg+xml</dc:format>
    <dc:creator>
     <cc:Agent>
      <dc:title>Matplotlib v3.11.2, https://matplotlib.org/</dc:title>
     </cc:Agent>
    </dc:creator>
   </cc:Work>
  </rdf:RDF>
 </metadata>
 <defs>
  <style type="text/css">*{stroke-linejoin: round; stroke-linecap: butt}</style>
 </defs>
 <g id="figure_1">
  <g id="patch_1">
   <path d="M 0 18 
L 171 18 
L 171 0 
L 0 0 
z
" style="fill: #ffffff"/>
  </g>
  <g id="text_1">
   <!-- $E(H)=\frac{\exp((H-c)/a)+b}{12},\qquad H&gt;\frac{1}{2}$ -->
   <g style="fill: #163247" transform="translate(0 13) scale(0.13 -0.13)">
    <defs>
     <path id="STIXGeneral-Italic-28" d="M 4058 4179 
L 3859 3194 
L 3718 3206 
Q 3738 3366 3738 3501 
Q 3738 3789 3501 3878 
Q 3264 3968 2509 3968 
Q 2240 3968 2157 3939 
Q 2074 3910 2042 3802 
L 1619 2310 
L 2118 2310 
Q 2541 2310 2681 2412 
Q 2822 2515 3008 2931 
L 3123 2906 
L 2688 1421 
L 2560 1453 
Q 2605 1651 2605 1786 
Q 2605 1939 2560 1984 
Q 2451 2080 2061 2080 
L 1562 2080 
L 1357 1363 
Q 1126 550 1126 429 
Q 1126 211 1632 211 
Q 2458 211 2931 461 
Q 3174 589 3533 1088 
L 3635 1037 
L 3238 0 
L -6 0 
L -6 102 
Q 269 154 352 227 
Q 435 301 512 576 
L 1299 3405 
Q 1370 3642 1370 3814 
Q 1370 3942 1270 3996 
Q 1171 4051 877 4077 
L 877 4179 
L 4058 4179 
z
" transform="scale(0.015625)"/>
     <path id="STIXGeneral-Regular-b" d="M 1946 -1030 
L 1869 -1133 
Q 1126 -710 716 32 
Q 307 774 307 1613 
Q 307 3386 1888 4326 
L 1946 4224 
Q 1293 3667 1075 3126 
Q 858 2586 858 1632 
Q 858 685 1082 96 
Q 1306 -493 1946 -1030 
z
" transform="scale(0.015625)"/>
     <path id="STIXGeneral-Italic-2b" d="M 4922 4179 
L 4922 4077 
Q 4640 4026 4550 3949 
Q 4461 3872 4384 3603 
L 3539 525 
Q 3520 448 3520 371 
Q 3520 237 3616 185 
Q 3712 134 4026 102 
L 4026 0 
L 2272 0 
L 2272 102 
Q 2598 128 2729 237 
Q 2861 346 2925 595 
L 3334 2086 
L 1510 2086 
L 1088 525 
Q 1069 461 1069 384 
Q 1069 243 1149 192 
Q 1229 141 1517 102 
L 1517 0 
L -51 0 
L -51 102 
Q 211 128 310 230 
Q 410 333 499 653 
L 1254 3405 
Q 1331 3699 1331 3814 
Q 1331 3949 1238 3997 
Q 1146 4045 838 4077 
L 838 4179 
L 2573 4179 
L 2573 4077 
Q 2285 4058 2141 3955 
Q 1997 3853 1933 3622 
L 1587 2355 
L 3411 2355 
L 3706 3405 
Q 3795 3738 3795 3808 
Q 3795 3930 3692 3994 
Q 3590 4058 3334 4077 
L 3334 4179 
L 4922 4179 
z
" transform="scale(0.015625)"/>
     <path id="STIXGeneral-Regular-c" d="M 186 4224 
L 262 4326 
Q 992 3891 1408 3148 
Q 1824 2406 1824 1581 
Q 1824 -166 243 -1133 
L 186 -1030 
Q 845 -486 1059 54 
Q 1274 595 1274 1562 
Q 1274 2534 1059 3120 
Q 845 3706 186 4224 
z
" transform="scale(0.015625)"/>
     <path id="STIXGeneral-Regular-20" d="M 4077 2048 
L 307 2048 
L 307 2470 
L 4077 2470 
L 4077 2048 
z
M 4077 768 
L 307 768 
L 307 1190 
L 4077 1190 
L 4077 768 
z
" transform="scale(0.015625)"/>
     <path id="STIXGeneral-Regular-48" d="M 2611 1050 
L 2714 1005 
Q 2330 -64 1376 -64 
Q 813 -64 486 329 
Q 160 723 160 1389 
Q 160 2074 525 2509 
Q 890 2944 1485 2944 
Q 2061 2944 2374 2502 
Q 2560 2246 2592 1773 
L 621 1773 
Q 646 1370 700 1158 
Q 755 947 915 730 
Q 1184 378 1626 378 
Q 1939 378 2153 531 
Q 2368 685 2611 1050 
z
M 634 1978 
L 1939 1978 
Q 1882 2381 1750 2547 
Q 1619 2714 1312 2714 
Q 1043 2714 864 2525 
Q 685 2336 634 1978 
z
" transform="scale(0.015625)"/>
     <path id="STIXGeneral-Regular-5b" d="M 3066 0 
L 1779 0 
L 1779 96 
Q 1939 109 1987 137 
Q 2035 166 2035 250 
Q 2035 307 1997 365 
L 1414 1261 
L 909 474 
Q 781 275 781 211 
Q 781 96 1037 96 
L 1037 0 
L 109 0 
L 109 96 
Q 269 109 355 169 
Q 442 230 576 422 
L 1306 1478 
L 704 2400 
Q 557 2624 454 2704 
Q 352 2784 211 2784 
L 154 2784 
L 154 2880 
L 1478 2880 
L 1478 2784 
Q 1203 2778 1203 2643 
Q 1203 2509 1498 2074 
Q 1581 1958 1587 1946 
Q 1619 1990 1779 2227 
Q 1811 2285 1856 2349 
Q 1901 2413 1923 2451 
Q 1946 2490 1971 2528 
Q 1997 2566 2006 2595 
Q 2016 2624 2016 2643 
Q 2016 2765 1760 2784 
L 1760 2880 
L 2771 2880 
L 2771 2784 
Q 2445 2771 2253 2502 
L 1722 1734 
L 2541 480 
Q 2790 96 3066 96 
L 3066 0 
z
" transform="scale(0.015625)"/>
     <path id="STIXGeneral-Regular-53" d="M 1018 2931 
L 1018 2438 
Q 1421 2944 1939 2944 
Q 2406 2944 2707 2560 
Q 3008 2176 3008 1581 
Q 3008 883 2621 409 
Q 2234 -64 1664 -64 
Q 1466 -64 1328 -6 
Q 1190 51 1018 211 
L 1018 -794 
Q 1018 -1094 1120 -1180 
Q 1222 -1267 1581 -1274 
L 1581 -1389 
L 32 -1389 
L 32 -1280 
Q 314 -1254 397 -1171 
Q 480 -1088 480 -838 
L 480 2157 
Q 480 2381 429 2451 
Q 378 2522 218 2522 
Q 115 2522 58 2515 
L 58 2618 
Q 506 2752 979 2944 
L 1018 2931 
z
M 1018 2138 
L 1018 563 
Q 1018 422 1238 281 
Q 1459 141 1683 141 
Q 2029 141 2243 467 
Q 2458 794 2458 1325 
Q 2458 1888 2243 2224 
Q 2029 2560 1670 2560 
Q 1446 2560 1232 2419 
Q 1018 2278 1018 2138 
z
" transform="scale(0.015625)"/>
     <path id="STIXGeneral-Regular-425" d="M 3974 1408 
L 410 1408 
L 410 1830 
L 3974 1830 
L 3974 1408 
z
" transform="scale(0.015625)"/>
     <path id="STIXGeneral-Italic-46" d="M 2240 685 
L 2342 621 
Q 2048 250 1769 90 
Q 1491 -70 1133 -70 
Q 678 -70 435 179 
Q 192 429 192 915 
Q 192 1344 409 1744 
Q 627 2144 979 2432 
Q 1472 2822 2048 2822 
Q 2342 2822 2531 2675 
Q 2720 2528 2720 2304 
Q 2720 2176 2630 2086 
Q 2541 1997 2413 1997 
Q 2285 1997 2224 2070 
Q 2163 2144 2163 2253 
Q 2163 2310 2211 2403 
Q 2259 2496 2259 2560 
Q 2259 2688 2022 2688 
Q 1619 2688 1325 2381 
Q 742 1766 742 890 
Q 742 544 889 352 
Q 1037 160 1312 160 
Q 1562 160 1766 281 
Q 1971 403 2240 685 
z
" transform="scale(0.015625)"/>
     <path id="STIXGeneral-Regular-12" d="M 1837 4326 
L 378 -90 
L -58 -90 
L 1408 4326 
L 1837 4326 
z
" transform="scale(0.015625)"/>
     <path id="STIXGeneral-Italic-44" d="M 2963 710 
L 3046 640 
Q 2688 205 2518 70 
Q 2349 -64 2157 -64 
Q 1901 -64 1901 198 
Q 1901 358 2048 934 
Q 1690 397 1389 163 
Q 1088 -70 749 -70 
Q 467 -70 288 125 
Q 109 320 109 672 
Q 109 1158 387 1664 
Q 666 2170 1094 2496 
Q 1523 2822 1939 2822 
Q 2368 2822 2451 2451 
L 2522 2758 
L 2541 2778 
L 2931 2822 
L 2976 2803 
Q 2970 2778 2938 2669 
Q 2368 595 2368 346 
Q 2368 262 2458 262 
Q 2554 262 2790 525 
L 2963 710 
z
M 2336 2310 
Q 2336 2477 2240 2579 
Q 2144 2682 1978 2682 
Q 1542 2682 1139 2093 
Q 928 1779 787 1395 
Q 646 1011 646 717 
Q 646 243 1030 243 
Q 1408 243 1843 870 
Q 2336 1581 2336 2310 
z
" transform="scale(0.015625)"/>
     <path id="STIXGeneral-Regular-e" d="M 4070 1408 
L 2400 1408 
L 2400 -262 
L 1978 -262 
L 1978 1408 
L 307 1408 
L 307 1830 
L 1978 1830 
L 1978 3501 
L 2400 3501 
L 2400 1830 
L 4070 1830 
L 4070 1408 
z
" transform="scale(0.015625)"/>
     <path id="STIXGeneral-Italic-45" d="M 1043 1856 
L 1050 1856 
Q 1370 2387 1654 2604 
Q 1939 2822 2285 2822 
Q 2618 2822 2822 2617 
Q 3027 2413 3027 2054 
Q 3027 1562 2726 1062 
Q 2426 563 1942 246 
Q 1459 -70 979 -70 
Q 685 -70 416 32 
Q 147 134 147 269 
L 147 307 
L 1056 3654 
Q 1114 3885 1114 3955 
Q 1114 4058 1053 4080 
Q 992 4102 704 4115 
L 704 4224 
Q 1184 4282 1683 4371 
L 1715 4339 
L 1581 3814 
L 1043 1856 
z
M 2483 1958 
Q 2483 2509 2035 2509 
Q 1594 2509 1158 1773 
Q 954 1427 826 1008 
Q 698 589 698 294 
Q 698 77 992 77 
Q 1414 77 1779 454 
Q 2074 762 2278 1187 
Q 2483 1613 2483 1958 
z
" transform="scale(0.015625)"/>
     <path id="STIXGeneral-Regular-14" d="M 2522 0 
L 755 0 
L 755 96 
Q 1107 115 1235 227 
Q 1363 339 1363 608 
L 1363 3482 
Q 1363 3795 1171 3795 
Q 1082 3795 883 3718 
L 710 3654 
L 710 3744 
L 1856 4326 
L 1914 4307 
L 1914 486 
Q 1914 275 2042 185 
Q 2170 96 2522 96 
L 2522 0 
z
" transform="scale(0.015625)"/>
     <path id="STIXGeneral-Regular-15" d="M 3034 877 
L 2688 0 
L 186 0 
L 186 77 
L 1325 1286 
Q 1773 1754 1965 2144 
Q 2157 2534 2157 2950 
Q 2157 3379 1920 3616 
Q 1683 3853 1267 3853 
Q 922 3853 720 3673 
Q 518 3494 326 3021 
L 192 3053 
Q 301 3648 630 3987 
Q 960 4326 1523 4326 
Q 2054 4326 2380 4006 
Q 2707 3686 2707 3200 
Q 2707 2477 1888 1613 
L 832 486 
L 2330 486 
Q 2541 486 2665 569 
Q 2790 653 2944 915 
L 3034 877 
z
" transform="scale(0.015625)"/>
     <path id="STIXGeneral-Regular-f" d="M 531 -902 
L 467 -781 
Q 998 -422 998 -96 
Q 998 -13 909 -13 
Q 883 -13 822 -25 
Q 762 -38 723 -38 
Q 352 -38 352 288 
Q 352 454 457 553 
Q 563 653 736 653 
Q 954 653 1101 496 
Q 1248 339 1248 96 
Q 1248 -198 1053 -473 
Q 858 -749 531 -902 
z
" transform="scale(0.015625)"/>
     <path id="STIXGeneral-Regular-21" d="M 3974 1594 
L 358 -154 
L 358 250 
L 3123 1626 
L 358 3002 
L 358 3418 
L 3974 1658 
L 3974 1594 
z
" transform="scale(0.015625)"/>
    </defs>
    <use xlink:href="#STIXGeneral-Italic-28" transform="translate(0 0.625)"/>
    <use xlink:href="#STIXGeneral-Regular-b" transform="translate(61.099945 0.625)"/>
    <use xlink:href="#STIXGeneral-Italic-2b" transform="translate(94.399918 0.625)"/>
    <use xlink:href="#STIXGeneral-Regular-c" transform="translate(166.599854 0.625)"/>
    <use xlink:href="#STIXGeneral-Regular-20" transform="translate(219.899826 0.625)"/>
    <use xlink:href="#STIXGeneral-Regular-48" transform="translate(314.649765 50.192188) scale(0.7)"/>
    <use xlink:href="#STIXGeneral-Regular-5b" transform="translate(345.729739 50.192188) scale(0.7)"/>
    <use xlink:href="#STIXGeneral-Regular-53" transform="translate(380.729707 50.192188) scale(0.7)"/>
    <use xlink:href="#STIXGeneral-Regular-b" transform="translate(415.729675 50.192188) scale(0.7)"/>
    <use xlink:href="#STIXGeneral-Regular-b" transform="translate(439.039656 50.192188) scale(0.7)"/>
    <use xlink:href="#STIXGeneral-Italic-2b" transform="translate(462.349637 50.192188) scale(0.7)"/>
    <use xlink:href="#STIXGeneral-Regular-425" transform="translate(526.889592 50.192188) scale(0.7)"/>
    <use xlink:href="#STIXGeneral-Italic-46" transform="translate(588.839549 50.192188) scale(0.7)"/>
    <use xlink:href="#STIXGeneral-Regular-c" transform="translate(619.919524 50.192188) scale(0.7)"/>
    <use xlink:href="#STIXGeneral-Regular-12" transform="translate(643.229504 50.192188) scale(0.7)"/>
    <use xlink:href="#STIXGeneral-Italic-44" transform="translate(662.689485 50.192188) scale(0.7)"/>
    <use xlink:href="#STIXGeneral-Regular-c" transform="translate(697.759447 50.192188) scale(0.7)"/>
    <use xlink:href="#STIXGeneral-Regular-e" transform="translate(735.069427 50.192188) scale(0.7)"/>
    <use xlink:href="#STIXGeneral-Italic-45" transform="translate(797.019385 50.192188) scale(0.7)"/>
    <use xlink:href="#STIXGeneral-Regular-14" transform="translate(538.649765 -31.065625) scale(0.7)"/>
    <use xlink:href="#STIXGeneral-Regular-15" transform="translate(573.649733 -31.065625) scale(0.7)"/>
    <use xlink:href="#STIXGeneral-Regular-f" transform="translate(838.269353 0.625)"/>
    <use xlink:href="#STIXGeneral-Italic-2b" transform="translate(1083.269322 0.625)"/>
    <use xlink:href="#STIXGeneral-Regular-21" transform="translate(1175.469258 0.625)"/>
    <use xlink:href="#STIXGeneral-Regular-14" transform="translate(1270.219197 35) scale(0.7)"/>
    <use xlink:href="#STIXGeneral-Regular-15" transform="translate(1270.219197 -31.065625) scale(0.7)"/>
    <path d="M 314.649765 22.5 
L 314.649765 28.75 
L 832.019353 28.75 
L 832.019353 22.5 
L 314.649765 22.5 
z
"/>
    <path d="M 1270.219197 22.5 
L 1270.219197 28.75 
L 1305.219165 28.75 
L 1305.219165 22.5 
L 1270.219197 22.5 
z
"/>
   </g>
  </g>
 </g>
</svg>
